<svg width="21" height="21" viewBox="0 0 21 21" fill="none" xmlns="http://www.w3.org/2000/svg">
<path d="M6.95068 15.5H13.6174M6.95068 15.5C6.95068 17.3409 8.44307 18.8333 10.284 18.8333C12.125 18.8333 13.6174 17.3409 13.6174 15.5M6.95068 15.5V13.6572C6.95068 13.1124 6.67284 12.6136 6.27696 12.2392C5.15236 11.1759 4.45068 9.66985 4.45068 7.99996C4.45068 4.7783 7.06236 2.16663 10.284 2.16663C13.5057 2.16663 16.1174 4.7783 16.1174 7.99996C16.1174 9.66985 15.4157 11.1759 14.2911 12.2392C13.8952 12.6136 13.6174 13.1124 13.6174 13.6572V15.5M8.61735 7.99996L10.284 9.66663M10.284 9.66663L11.9507 7.99996M10.284 9.66663V15.5" stroke="#3B82F6" stroke-width="1.5" stroke-linecap="round" stroke-linejoin="round"/>
</svg>
