<svg width="20" height="20" viewBox="0 0 20 20" fill="none" xmlns="http://www.w3.org/2000/svg">
<path d="M11.5429 8.2407L11.9634 8.51126L11.5429 8.2407ZM7.66671 7.24998C7.66671 7.52612 7.89056 7.74998 8.16671 7.74998C8.44285 7.74998 8.66671 7.52612 8.66671 7.24998H7.66671ZM9.50004 11.375C9.50004 11.6511 9.7239 11.875 10 11.875C10.2762 11.875 10.5 11.6511 10.5 11.375H9.50004ZM10.5 13.6666C10.5 13.3905 10.2762 13.1666 10 13.1666C9.7239 13.1666 9.50004 13.3905 9.50004 13.6666H10.5ZM9.50004 14.5833C9.50004 14.8595 9.7239 15.0833 10 15.0833C10.2762 15.0833 10.5 14.8595 10.5 14.5833H9.50004ZM18.6667 9.99998C18.6667 14.7864 14.7865 18.6666 10 18.6666V19.6666C15.3388 19.6666 19.6667 15.3387 19.6667 9.99998H18.6667ZM10 18.6666C5.21357 18.6666 1.33337 14.7864 1.33337 9.99998H0.333374C0.333374 15.3387 4.66129 19.6666 10 19.6666V18.6666ZM1.33337 9.99998C1.33337 5.21351 5.21357 1.33331 10 1.33331V0.333313C4.66129 0.333313 0.333374 4.66123 0.333374 9.99998H1.33337ZM10 1.33331C14.7865 1.33331 18.6667 5.21351 18.6667 9.99998H19.6667C19.6667 4.66123 15.3388 0.333313 10 0.333313V1.33331ZM11.3334 7.24998C11.3334 7.51616 11.2559 7.76272 11.1224 7.97014L11.9634 8.51126C12.1976 8.14731 12.3334 7.71374 12.3334 7.24998H11.3334ZM8.66671 7.24998C8.66671 6.5136 9.26366 5.91665 10 5.91665V4.91665C8.71138 4.91665 7.66671 5.96132 7.66671 7.24998H8.66671ZM10 5.91665C10.7364 5.91665 11.3334 6.5136 11.3334 7.24998H12.3334C12.3334 5.96132 11.2887 4.91665 10 4.91665V5.91665ZM9.50004 10.9166V11.375H10.5V10.9166H9.50004ZM11.1224 7.97014C11.0011 8.15867 10.851 8.35103 10.6811 8.5622C10.5164 8.76687 10.3296 8.99339 10.1617 9.22411C9.82949 9.68069 9.50004 10.2457 9.50004 10.9166H10.5C10.5 10.575 10.6681 10.2278 10.9703 9.81246C11.1197 9.60719 11.2843 9.40779 11.4602 9.1891C11.631 8.97691 11.8107 8.74848 11.9634 8.51126L11.1224 7.97014ZM9.50004 13.6666V14.5833H10.5V13.6666H9.50004Z" fill="white"/>
</svg>
