<svg width="20" height="20" viewBox="0 0 20 20" fill="none" xmlns="http://www.w3.org/2000/svg">
<path fill-rule="evenodd" clip-rule="evenodd" d="M19.1666 9.99998C19.1666 15.0626 15.0625 19.1666 9.99992 19.1666C4.93731 19.1666 0.833252 15.0626 0.833252 9.99998C0.833252 4.93737 4.93731 0.833313 9.99992 0.833313C15.0625 0.833313 19.1666 4.93737 19.1666 9.99998ZM9.99992 6.10415C9.36709 6.10415 8.85409 6.61715 8.85409 7.24998C8.85409 7.62968 8.54628 7.93748 8.16659 7.93748C7.78689 7.93748 7.47909 7.62968 7.47909 7.24998C7.47909 5.85776 8.6077 4.72915 9.99992 4.72915C11.3921 4.72915 12.5208 5.85776 12.5208 7.24998C12.5208 7.75079 12.374 8.21942 12.1209 8.61273C11.9624 8.85907 11.7771 9.09426 11.6062 9.30664L11.514 9.42088C11.3722 9.59637 11.2421 9.75747 11.1218 9.92277C10.8252 10.3304 10.6874 10.6368 10.6874 10.9166V11.375C10.6874 11.7547 10.3796 12.0625 9.99992 12.0625C9.62022 12.0625 9.31242 11.7547 9.31242 11.375V10.9166C9.31242 10.184 9.67213 9.5781 10.01 9.11379C10.1527 8.9176 10.3091 8.72411 10.4514 8.54816L10.5349 8.44466C10.7047 8.23368 10.8492 8.04808 10.9646 7.86868C11.0792 7.69061 11.1458 7.47911 11.1458 7.24998C11.1458 6.61715 10.6327 6.10415 9.99992 6.10415ZM10.6874 13.6666C10.6874 13.287 10.3796 12.9791 9.99992 12.9791C9.62022 12.9791 9.31242 13.287 9.31242 13.6666V14.5833C9.31242 14.963 9.62022 15.2708 9.99992 15.2708C10.3796 15.2708 10.6874 14.963 10.6874 14.5833V13.6666Z" fill="white"/>
</svg>
