<svg width="22" height="22" viewBox="0 0 22 22" fill="none" xmlns="http://www.w3.org/2000/svg">
<path fill-rule="evenodd" clip-rule="evenodd" d="M12.1344 10.8378L20.6528 2.31945C20.9213 2.05096 20.9213 1.61566 20.6528 1.34718C20.3843 1.07869 19.949 1.07869 19.6805 1.34718L16.9775 4.05018C15.3726 2.66853 13.2838 1.83331 11 1.83331C5.93737 1.83331 1.83331 5.93737 1.83331 11C1.83331 16.0626 5.93737 20.1666 11 20.1666C16.0626 20.1666 20.1666 16.0626 20.1666 11C20.1666 9.18678 19.6402 7.49653 18.7318 6.07376L16.548 8.25752C16.9574 9.08405 17.1875 10.0151 17.1875 11C17.1875 14.4172 14.4172 17.1875 11 17.1875C7.58272 17.1875 4.81248 14.4172 4.81248 11C4.81248 7.58272 7.58272 4.81248 11 4.81248C12.4609 4.81248 13.8036 5.31881 14.8621 6.16555L13.8821 7.14559C13.0787 6.54388 12.081 6.18748 11 6.18748C8.34211 6.18748 6.18748 8.34211 6.18748 11C6.18748 13.6579 8.34211 15.8125 11 15.8125C13.6579 15.8125 15.8125 13.6579 15.8125 11C15.8125 10.4021 15.7034 9.8296 15.5042 9.30141L13.5028 11.3027C13.3533 12.5522 12.2897 13.5208 11 13.5208C9.60776 13.5208 8.47915 12.3922 8.47915 11C8.47915 9.60776 9.60776 8.47915 11 8.47915C11.4463 8.47915 11.8655 8.59512 12.2291 8.79858L11.1622 9.86553C11.1092 9.85803 11.055 9.85415 11 9.85415C10.3672 9.85415 9.85415 10.3672 9.85415 11C9.85415 11.6328 10.3672 12.1458 11 12.1458C11.6328 12.1458 12.1458 11.6328 12.1458 11C12.1458 10.9449 12.1419 10.8908 12.1344 10.8378Z" fill="white"/>
</svg>
