<svg width="19" height="21" viewBox="0 0 19 21" fill="none" xmlns="http://www.w3.org/2000/svg">
<path d="M2.59187 11.3771L1.84665 11.2925L2.59187 11.3771ZM3.02042 7.60118L3.76564 7.68576L3.02042 7.60118ZM1.76244 13.2524L1.19133 12.7663H1.19133L1.76244 13.2524ZM16.1533 11.2925C16.1066 10.8809 15.7351 10.5852 15.3235 10.6319C14.9119 10.6786 14.6162 11.0501 14.6629 11.4617L16.1533 11.2925ZM16.2375 13.2524L15.6664 13.7386L16.2375 13.2524ZM6.82462 3.19138L7.06756 3.90095C7.37086 3.7971 7.57462 3.51197 7.57462 3.19138H6.82462ZM10.0821 2.16422C10.3519 2.47849 10.8254 2.51452 11.1397 2.2447C11.454 1.97487 11.49 1.50137 11.2202 1.1871L10.0821 2.16422ZM12.5773 18.4298C12.7226 18.042 12.5261 17.6097 12.1382 17.4643C11.7503 17.319 11.318 17.5156 11.1727 17.9034L12.5773 18.4298ZM6.82728 17.9034C6.68191 17.5156 6.24964 17.319 5.86178 17.4643C5.47391 17.6097 5.27732 18.042 5.42268 18.4298L6.82728 17.9034ZM16.875 5.70829C16.875 6.8819 15.9236 7.83329 14.75 7.83329V9.33329C16.752 9.33329 18.375 7.71032 18.375 5.70829H16.875ZM14.75 7.83329C13.5764 7.83329 12.625 6.8819 12.625 5.70829H11.125C11.125 7.71032 12.7479 9.33329 14.75 9.33329V7.83329ZM12.625 5.70829C12.625 4.53469 13.5764 3.58329 14.75 3.58329V2.08329C12.7479 2.08329 11.125 3.70626 11.125 5.70829H12.625ZM14.75 3.58329C15.9236 3.58329 16.875 4.53469 16.875 5.70829H18.375C18.375 3.70626 16.752 2.08329 14.75 2.08329V3.58329ZM14.5364 15.5H3.46351V17H14.5364V15.5ZM3.33709 11.4617L3.76564 7.68576L2.27521 7.5166L1.84665 11.2925L3.33709 11.4617ZM2.33355 13.7386C2.89063 13.0841 3.24223 12.2974 3.33709 11.4617L1.84665 11.2925C1.78714 11.8169 1.56509 12.3272 1.19133 12.7663L2.33355 13.7386ZM14.6629 11.4617C14.7577 12.2974 15.1093 13.0841 15.6664 13.7386L16.8086 12.7663C16.4349 12.3272 16.2128 11.8169 16.1533 11.2925L14.6629 11.4617ZM3.46351 15.5C2.84656 15.5 2.41313 15.1952 2.21394 14.8442C2.02216 14.5062 2.02465 14.1014 2.33355 13.7386L1.19133 12.7663C0.448916 13.6384 0.425839 14.7324 0.90937 15.5845C1.3855 16.4235 2.32826 17 3.46351 17V15.5ZM14.5364 17C15.6717 17 16.6145 16.4235 17.0906 15.5845C17.5741 14.7324 17.551 13.6384 16.8086 12.7663L15.6664 13.7386C15.9753 14.1014 15.9778 14.5062 15.786 14.8442C15.5868 15.1952 15.1534 15.5 14.5364 15.5V17ZM7.57462 3.19138V3.09199H6.07462V3.19138H7.57462ZM3.76564 7.68576C3.95861 5.98552 5.2397 4.52678 7.06756 3.90095L6.58167 2.48182C4.30327 3.26192 2.5444 5.14477 2.27521 7.5166L3.76564 7.68576ZM8.99998 0.166626C7.38435 0.166626 6.07462 1.47636 6.07462 3.09199H7.57462C7.57462 2.30478 8.21277 1.66663 8.99998 1.66663V0.166626ZM8.99998 1.66663C9.43258 1.66663 9.81956 1.85842 10.0821 2.16422L11.2202 1.1871C10.6848 0.56354 9.88835 0.166626 8.99998 0.166626V1.66663ZM11.1727 17.9034C10.8682 18.716 10.0269 19.3333 8.99998 19.3333V20.8333C10.6277 20.8333 12.0448 19.8506 12.5773 18.4298L11.1727 17.9034ZM8.99998 19.3333C7.97311 19.3333 7.1318 18.716 6.82728 17.9034L5.42268 18.4298C5.95514 19.8506 7.37221 20.8333 8.99998 20.8333V19.3333Z" fill="white"/>
</svg>
