<svg width="26" height="26" viewBox="0 0 26 26" fill="none" xmlns="http://www.w3.org/2000/svg">
<path d="M13.1495 14.7746L14.9079 22.5161C14.9566 22.7294 15.2501 22.7569 15.3369 22.5558L24.1339 2.17742C24.2151 1.98926 24.0247 1.7983 23.836 1.8795L3.45814 10.6771C3.2571 10.7639 3.28398 11.0573 3.4979 11.1061L11.2393 12.8645C11.3032 12.879 11.3704 12.865 11.423 12.8264L16.7828 8.91534C16.9917 8.76302 17.2515 9.02286 17.0992 9.23174L13.1881 14.5915C13.1495 14.6441 13.1355 14.7113 13.1501 14.7752L13.1495 14.7746Z" fill="white"/>
<path d="M23.4536 6.65236L22.8964 7.9426C22.8689 8.00588 22.8712 8.07756 22.9014 8.13916C24.9197 12.2529 24.2208 17.3736 20.8042 20.7901C19.533 22.0613 18.0255 22.9568 16.4217 23.4753C11.9041 24.9364 8.42878 19.6813 11.0905 16.1124C11.3201 15.805 12.1102 15.217 11.4545 14.5596C10.8177 13.9206 10.2645 14.6508 9.90046 14.9224C6.35622 17.564 1.0967 14.158 2.5135 9.66684C3.06566 7.9174 4.06358 6.27996 5.50782 4.93372C8.90982 1.76356 13.8714 1.15484 17.8726 3.11204C17.9342 3.14228 18.0053 3.14452 18.0686 3.11708L19.3611 2.55932C19.5392 2.4826 19.5537 2.23564 19.3863 2.13708C14.4409 -0.76204 7.92534 -0.00380003 3.8015 4.4146C-0.63594 9.16956 -0.7457 16.4333 3.55454 21.3126C8.39742 26.8062 16.8187 27.0033 21.9181 21.904C26.0525 17.7695 26.7044 11.4516 23.8758 6.62772C23.7778 6.46028 23.5309 6.47484 23.4536 6.65292V6.65236Z" fill="white"/>
</svg>
