<svg width="22" height="22" viewBox="0 0 22 22" fill="none" xmlns="http://www.w3.org/2000/svg">
<path fill-rule="evenodd" clip-rule="evenodd" d="M8.02075 3.4375C8.02075 2.29841 8.94416 1.375 10.0833 1.375H11.9166C13.0557 1.375 13.9791 2.29841 13.9791 3.4375V4.35417H8.02075V3.4375ZM6.64575 4.35417V3.4375C6.64575 1.53902 8.18477 0 10.0833 0H11.9166C13.8151 0 15.3541 1.53902 15.3541 3.4375V4.35417H16.4999C18.525 4.35417 20.1666 5.99579 20.1666 8.02083V9.09598C19.5306 9.40238 18.7324 9.76913 17.8477 10.1356C16.2006 10.8178 14.3125 11.4736 12.629 11.7625C12.3241 11.1734 11.709 10.7708 10.9999 10.7708C10.2908 10.7708 9.67575 11.1734 9.37079 11.7625C7.6873 11.4736 5.79917 10.8178 4.15208 10.1356C3.26746 9.76914 2.46928 9.40239 1.83325 9.096V8.02083C1.83325 5.99579 3.47487 4.35417 5.49992 4.35417H6.64575ZM18.3739 11.4059C19.0273 11.1352 19.6343 10.8648 20.1666 10.6172V15.3542C20.1666 17.3792 18.525 19.0208 16.4999 19.0208H5.49992C3.47487 19.0208 1.83325 17.3792 1.83325 15.3542V10.6172C2.36554 10.8648 2.97249 11.1352 3.62589 11.4059C5.30574 12.1017 7.35304 12.8248 9.24461 13.135C9.47223 13.8887 10.172 14.4375 10.9999 14.4375C11.8279 14.4375 12.5276 13.8887 12.7552 13.135C14.6468 12.8248 16.6941 12.1017 18.3739 11.4059Z" fill="white"/>
</svg>
