<svg width="22" height="22" viewBox="0 0 22 22" fill="none" xmlns="http://www.w3.org/2000/svg">
<rect x="1.83337" y="5.5" width="18.3333" height="14.6667" rx="4" stroke="white"/>
<path d="M7.33337 5.49998V4.83331C7.33337 3.17646 8.67652 1.83331 10.3334 1.83331H11.6667C13.3236 1.83331 14.6667 3.17646 14.6667 4.83331V5.49998" stroke="white" stroke-linecap="round"/>
<path d="M1.83337 10.0833C1.83337 10.0833 7.42023 13.75 11 13.75C14.5798 13.75 20.1667 10.0833 20.1667 10.0833" stroke="white" stroke-linecap="round"/>
<path d="M12.8333 13.75C12.8333 14.7625 12.0125 15.5834 11 15.5834C9.98744 15.5834 9.16663 14.7625 9.16663 13.75C9.16663 12.7375 9.98744 11.9167 11 11.9167C12.0125 11.9167 12.8333 12.7375 12.8333 13.75Z" fill="white"/>
</svg>
