<svg width="22" height="22" viewBox="0 0 22 22" fill="none" xmlns="http://www.w3.org/2000/svg">
<path d="M2.85249 7.85462L2.85249 7.85462L2.85455 7.85255L6.38104 4.30608C6.75934 3.94136 7.2644 3.7375 7.79 3.7375C8.31577 3.7375 8.82097 3.94148 9.19931 4.30642C9.29912 4.40655 9.38364 4.50807 9.44941 4.61038L9.78488 5.13222L10.2236 4.69355L12.7314 2.1857C12.7317 2.18535 12.7321 2.18499 12.7325 2.18464C12.9453 1.97471 13.2021 1.81471 13.4844 1.71622C13.7671 1.61756 14.0683 1.58309 14.366 1.61532C14.6637 1.64755 14.9505 1.74566 15.2056 1.90253C15.4606 2.05941 15.6776 2.27111 15.8406 2.52227L16.1214 2.95474L16.545 2.66079C17.3323 2.11456 18.4125 2.18961 19.1064 2.88355C19.7049 3.48205 19.8455 4.36432 19.5379 5.10912L19.379 5.49373L19.7284 5.71979C19.8854 5.8214 20.0295 5.93155 20.1237 6.03925L20.1363 6.05368L20.15 6.06711C20.951 6.85207 20.9483 8.11853 20.1519 8.8911L20.1444 8.89834L20.1373 8.90587L19.7673 9.29587L19.3516 9.734L19.8596 10.0606C19.9648 10.1282 20.054 10.2058 20.1159 10.2801L20.132 10.2995L20.15 10.3171C20.951 11.1021 20.9483 12.3685 20.1519 13.1411L20.1518 13.1411L20.1464 13.1464L14.1464 19.1464L14.1454 19.1475C11.0328 22.2789 5.98943 22.2635 2.85249 19.1454C-0.280829 16.0309 -0.280829 10.9691 2.85249 7.85462ZM7.08645 5.01645L7.08595 5.01695L3.55645 8.55645C3.55639 8.5565 3.55634 8.55656 3.55628 8.55661C0.821184 11.2919 0.821239 15.7183 3.55645 18.4536C6.29171 21.1888 10.7183 21.1888 13.4536 18.4536L13.4538 18.4533L19.4536 12.4436C19.8488 12.0483 19.8488 11.4217 19.4536 11.0264C19.0583 10.6312 18.4317 10.6312 18.0364 11.0264L14.8513 14.2116L14.1462 13.5016L19.4532 8.20387L19.4536 8.20355C19.8488 7.80829 19.8488 7.18171 19.4536 6.78645C19.0583 6.39118 18.4317 6.39118 18.0364 6.78645L13.44 11.3829L12.7371 10.68L18.3936 5.02355C18.7888 4.62829 18.7888 4.00171 18.3936 3.60645C17.9983 3.21118 17.3717 3.21118 16.9764 3.60645L11.32 9.26289L10.6167 8.55962L14.8501 4.31699C15.2838 3.89839 15.2115 3.27302 14.8625 2.90563C14.4705 2.49296 13.8365 2.50635 13.4464 2.89645L7.14645 9.19645L6.91523 9.42767L7.03437 9.73218C7.3533 10.5473 7.42781 11.4377 7.24877 12.2945C7.10404 12.9872 6.79868 13.6336 6.36013 14.183L5.65154 13.4744C6.10063 12.8732 6.34736 12.1393 6.34736 11.38C6.34736 10.6207 6.10063 9.88682 5.65154 9.28556L8.50355 6.43355C8.89882 6.03829 8.89882 5.41171 8.50355 5.01645C8.10829 4.62118 7.48171 4.62118 7.08645 5.01645ZM21.4775 16.5C21.2392 19.1355 19.1355 21.2392 16.5 21.4775V20.9757C18.874 20.7435 20.7435 18.874 20.9757 16.5H21.4775ZM0.522504 5.5C0.76084 2.86447 2.86447 0.76084 5.5 0.522504V1.0243C3.12596 1.25646 1.25646 3.12596 1.0243 5.5H0.522504Z" stroke="white"/>
</svg>
