<svg width="17" height="19" viewBox="0 0 17 19" fill="none" xmlns="http://www.w3.org/2000/svg">
<path d="M16 14.1421L9.1769 17.1746C8.74595 17.3661 8.25404 17.3661 7.8231 17.1746L1 14.1421M16 9.97544L9.1769 13.0079C8.74595 13.1995 8.25404 13.1995 7.8231 13.0079L1 9.97544M1.65738 5.72079L7.75464 8.76943C8.22386 9.00403 8.77614 9.00403 9.24536 8.76943L15.3426 5.72079C15.9568 5.41369 15.9568 4.53718 15.3426 4.23008L9.24536 1.18145C8.77614 0.946842 8.22386 0.946841 7.75464 1.18145L1.65738 4.23008C1.04317 4.53718 1.04317 5.41369 1.65738 5.72079Z" stroke="#C7C7C7" stroke-width="1.5" stroke-linecap="round" stroke-linejoin="round"/>
</svg>
