<svg width="39" height="39" viewBox="0 0 39 39" fill="none" xmlns="http://www.w3.org/2000/svg">
<rect x="0.5" y="0.5" width="38" height="38" rx="5.5" fill="white" stroke="#3B82F6"/>
<path d="M14 12H24.59L28 15.41V26C28 26.7956 27.6839 27.5587 27.1213 28.1213C26.5587 28.6839 25.7956 29 25 29H14C13.2044 29 12.4413 28.6839 11.8787 28.1213C11.3161 27.5587 11 26.7956 11 26V15C11 14.2044 11.3161 13.4413 11.8787 12.8787C12.4413 12.3161 13.2044 12 14 12ZM14 13C13.4696 13 12.9609 13.2107 12.5858 13.5858C12.2107 13.9609 12 14.4696 12 15V26C12 26.5304 12.2107 27.0391 12.5858 27.4142C12.9609 27.7893 13.4696 28 14 28H25C25.5304 28 26.0391 27.7893 26.4142 27.4142C26.7893 27.0391 27 26.5304 27 26V15.91L24.09 13H23V18H14V13ZM15 13V17H22V13H15ZM20 20C20.7956 20 21.5587 20.3161 22.1213 20.8787C22.6839 21.4413 23 22.2044 23 23C23 23.7956 22.6839 24.5587 22.1213 25.1213C21.5587 25.6839 20.7956 26 20 26C19.2044 26 18.4413 25.6839 17.8787 25.1213C17.3161 24.5587 17 23.7956 17 23C17 22.2044 17.3161 21.4413 17.8787 20.8787C18.4413 20.3161 19.2044 20 20 20ZM20 21C19.4696 21 18.9609 21.2107 18.5858 21.5858C18.2107 21.9609 18 22.4696 18 23C18 23.5304 18.2107 24.0391 18.5858 24.4142C18.9609 24.7893 19.4696 25 20 25C20.5304 25 21.0391 24.7893 21.4142 24.4142C21.7893 24.0391 22 23.5304 22 23C22 22.4696 21.7893 21.9609 21.4142 21.5858C21.0391 21.2107 20.5304 21 20 21Z" fill="#3B82F6"/>
</svg>
