<svg width="39" height="39" viewBox="0 0 39 39" fill="none" xmlns="http://www.w3.org/2000/svg">
<rect x="0.5" y="0.5" width="38" height="38" rx="5.5" fill="white" stroke="#C7C7C7"/>
<path d="M27 17L26.2841 26.3068C26.1238 28.3908 24.386 30 22.2959 30H17.7041C15.614 30 13.8762 28.3908 13.7159 26.3068L13 17M29 15C26.4021 13.734 23.3137 13 20 13C16.6863 13 13.5979 13.734 11 15M18 13V12C18 10.8954 18.8954 10 20 10C21.1046 10 22 10.8954 22 12V13M18 19V25M22 19V25" stroke="#C7C7C7" stroke-linecap="round"/>
</svg>
