<svg width="47" height="47" viewBox="0 0 47 47" fill="none" xmlns="http://www.w3.org/2000/svg">
<circle cx="23.5" cy="23.5" r="23.5" fill="white"/>
<g clip-path="url(#clip0_751_3284)">
<path d="M23.6335 25.0846L25.2035 31.9966C25.247 32.1871 25.509 32.2116 25.5865 32.0321L33.441 13.8371C33.5135 13.6691 33.3435 13.4986 33.175 13.5711L14.9805 21.4261C14.801 21.5036 14.825 21.7656 15.016 21.8091L21.928 23.3791C21.985 23.3921 22.045 23.3796 22.092 23.3451L26.8775 19.8531C27.064 19.7171 27.296 19.9491 27.16 20.1356L23.668 24.9211C23.6335 24.9681 23.621 25.0281 23.634 25.0851L23.6335 25.0846Z" fill="#2C66F5"/>
<path d="M32.8335 17.8324L32.336 18.9844C32.3115 19.0409 32.3135 19.1049 32.3405 19.1599C34.1425 22.8329 33.5185 27.4049 30.468 30.4554C29.333 31.5904 27.987 32.3899 26.555 32.8529C22.5215 34.1574 19.4185 29.4654 21.795 26.2789C22 26.0044 22.7055 25.4794 22.12 24.8924C21.5515 24.3219 21.0575 24.9739 20.7325 25.2164C17.568 27.5749 12.872 24.5339 14.137 20.5239C14.63 18.9619 15.521 17.4999 16.8105 16.2979C19.848 13.4674 24.278 12.9239 27.8505 14.6714C27.9055 14.6984 27.969 14.7004 28.0255 14.6759L29.1795 14.1779C29.3385 14.1094 29.3515 13.8889 29.202 13.8009C24.7865 11.2124 18.969 11.8894 15.287 15.8344C11.325 20.0799 11.227 26.5654 15.0665 30.9219C19.3905 35.8269 26.9095 36.0029 31.4625 31.4499C35.154 27.7584 35.736 22.1174 33.2105 17.8104C33.123 17.6609 32.9025 17.6739 32.8335 17.8329V17.8324Z" fill="#2C66F5"/>
</g>
<defs>
<clipPath id="clip0_751_3284">
<rect width="25" height="25" fill="white" transform="translate(11 11)"/>
</clipPath>
</defs>
</svg>
