<svg width="115" height="21" viewBox="0 0 115 21" fill="none" xmlns="http://www.w3.org/2000/svg">
<path d="M27.5275 16.3046C26.6461 15.8344 25.9548 15.1829 25.4526 14.3501C24.9503 13.5173 24.6992 12.5844 24.6992 11.5553C24.6992 10.5262 24.9503 9.59334 25.4526 8.76053C25.9548 7.92773 26.6461 7.27624 27.5275 6.80606C28.409 6.33589 29.397 6.10205 30.4928 6.10205C31.5886 6.10205 32.5779 6.33714 33.4581 6.80606C34.3396 7.27624 35.0308 7.92522 35.5331 8.75303C36.0353 9.58084 36.2864 10.5162 36.2864 11.5553C36.2864 12.5945 36.0353 13.5298 35.5331 14.3576C35.0308 15.1854 34.3396 15.8344 33.4581 16.3046C32.5767 16.7747 31.5886 17.0086 30.4928 17.0086C29.397 17.0086 28.4077 16.7735 27.5275 16.3046ZM32.4295 14.8053C33.0028 14.4877 33.4543 14.0425 33.7815 13.4723C34.1088 12.9021 34.2737 12.2631 34.2737 11.5553C34.2737 10.8476 34.11 10.2098 33.7815 9.63836C33.4531 9.06815 33.0028 8.62298 32.4295 8.30536C31.8563 7.98775 31.2107 7.82769 30.4928 7.82769C29.775 7.82769 29.1307 7.9865 28.5561 8.30536C27.9829 8.62298 27.5313 9.06815 27.2041 9.63836C26.8756 10.2086 26.712 10.8476 26.712 11.5553C26.712 12.2631 26.8756 12.9008 27.2041 13.4723C27.5313 14.0425 27.9829 14.4877 28.5561 14.8053C29.1294 15.1229 29.775 15.2829 30.4928 15.2829C31.2107 15.2829 31.855 15.1241 32.4295 14.8053Z" fill="white"/>
<path d="M45.48 8.7681V16.8586H43.6511V15.8282C43.3441 16.1921 42.9598 16.4722 42.4982 16.6685C42.0365 16.8648 41.5406 16.9636 41.0079 16.9636C39.9121 16.9636 39.0484 16.6635 38.418 16.062C37.7877 15.4618 37.4731 14.5702 37.4731 13.3886V8.7681H39.3934V13.131C39.3934 13.8587 39.5595 14.4014 39.8931 14.7591C40.2254 15.1179 40.6997 15.2968 41.3148 15.2968C42.001 15.2968 42.5464 15.0867 42.951 14.6678C43.3555 14.2489 43.5585 13.6449 43.5585 12.8571V8.76685H45.4787L45.48 8.7681Z" fill="white"/>
<path d="M52.4507 16.4184C52.225 16.5997 51.951 16.736 51.6289 16.8273C51.3067 16.9186 50.9655 16.9636 50.6066 16.9636C49.7048 16.9636 49.0085 16.731 48.5164 16.2671C48.0243 15.8031 47.7783 15.1254 47.7783 14.2363V10.3424H46.4263V8.82682H47.7783V5.61438H49.6998V8.82682H51.8977V10.3424H49.6998V14.1901C49.6998 14.5839 49.7974 14.8841 49.9915 15.0916C50.1855 15.2992 50.4684 15.4017 50.8362 15.4017C51.2661 15.4017 51.6251 15.2905 51.9117 15.0679L52.4494 16.4159L52.4507 16.4184Z" fill="white"/>
<path d="M60.0757 9.19202C60.706 9.53589 61.1994 10.0198 61.5583 10.6463C61.9172 11.2728 62.0961 11.9943 62.0961 12.8134C62.0961 13.6324 61.9172 14.3564 61.5583 14.9879C61.1994 15.6194 60.706 16.1071 60.0757 16.4497C59.4453 16.7936 58.7313 16.9649 57.9322 16.9649C57.3691 16.9649 56.8542 16.8686 56.3874 16.6773C55.9207 16.486 55.5288 16.1984 55.2117 15.8132V16.8586H53.3828V5.61694H55.3043V9.75347C55.6315 9.39959 56.0183 9.13199 56.4648 8.95068C56.91 8.76936 57.3995 8.67808 57.9322 8.67808C58.7313 8.67808 59.4453 8.85064 60.0757 9.19327V9.19202ZM59.4605 14.6465C59.9158 14.1826 60.1441 13.5711 60.1441 12.8134C60.1441 12.0556 59.9158 11.4453 59.4605 10.9802C59.0052 10.5163 58.4231 10.2837 57.7166 10.2837C57.2562 10.2837 56.8402 10.3875 56.4724 10.5938C56.1033 10.8014 55.8116 11.0965 55.596 11.4804C55.3804 11.8643 55.2739 12.3082 55.2739 12.8134C55.2739 13.3185 55.3817 13.7625 55.596 14.1463C55.8116 14.5302 56.1033 14.8253 56.4724 15.0329C56.8415 15.2405 57.2562 15.343 57.7166 15.343C58.4231 15.343 59.0052 15.1105 59.4605 14.6465Z" fill="white"/>
<path d="M64.9995 16.4335C64.3337 16.0796 63.8137 15.5882 63.4395 14.9567C63.0654 14.3252 62.8789 13.6112 62.8789 12.8134C62.8789 12.0156 63.0654 11.3041 63.4395 10.6776C63.8137 10.0511 64.3337 9.56218 64.9995 9.2083C65.6654 8.85441 66.4137 8.6781 67.2431 8.6781C68.0726 8.6781 68.8361 8.85441 69.502 9.2083C70.1679 9.56218 70.6879 10.0524 71.062 10.6776C71.4362 11.3041 71.6226 12.0156 71.6226 12.8134C71.6226 13.6112 71.4362 14.3264 71.062 14.9567C70.6879 15.5882 70.1679 16.0808 69.502 16.4335C68.8361 16.7873 68.0828 16.9637 67.2431 16.9637C66.4035 16.9637 65.6654 16.7873 64.9995 16.4335ZM68.9947 14.6453C69.4551 14.1814 69.6859 13.5699 69.6859 12.8121C69.6859 12.0543 69.4551 11.4441 68.9947 10.979C68.5343 10.515 67.9496 10.2824 67.2431 10.2824C66.5367 10.2824 65.9545 10.515 65.4992 10.979C65.0426 11.4441 64.8156 12.0543 64.8156 12.8121C64.8156 13.5699 65.0439 14.1814 65.4992 14.6453C65.9545 15.1105 66.5367 15.3418 67.2431 15.3418C67.9496 15.3418 68.5343 15.1092 68.9947 14.6453Z" fill="white"/>
<path d="M80.8847 8.7681V16.8586H79.0558V15.8282C78.7489 16.1921 78.3646 16.4722 77.903 16.6685C77.4413 16.8648 76.9454 16.9636 76.4127 16.9636C75.3169 16.9636 74.4532 16.6635 73.8228 16.062C73.1925 15.4618 72.8779 14.5702 72.8779 13.3886V8.7681H74.7981V13.131C74.7981 13.8587 74.9643 14.4014 75.2979 14.7591C75.6302 15.1179 76.1045 15.2968 76.7196 15.2968C77.4058 15.2968 77.9511 15.0867 78.3557 14.6678C78.7603 14.2489 78.9633 13.6449 78.9633 12.8571V8.76685H80.8835L80.8847 8.7681Z" fill="white"/>
<path d="M89.9584 9.57084C90.5837 10.1673 90.8957 11.0501 90.8957 12.2218V16.8573H88.9755V12.4632C88.9755 11.7566 88.8068 11.2239 88.4682 10.8651C88.1295 10.5062 87.6488 10.3274 87.0236 10.3274C86.3171 10.3274 85.7578 10.5374 85.3481 10.9564C84.9385 11.3753 84.733 11.9792 84.733 12.767V16.8573H82.8115V8.76679H84.6404V9.81218C84.9575 9.43829 85.357 9.15569 85.839 8.96436C86.3209 8.77304 86.8638 8.67676 87.4675 8.67676C88.5024 8.67676 89.3319 8.97437 89.9571 9.57084H89.9584Z" fill="white"/>
<path d="M100.89 5.61563V16.8573H99.0454V15.8119C98.7283 16.1958 98.3364 16.4834 97.8697 16.676C97.403 16.8673 96.888 16.9636 96.3249 16.9636C95.536 16.9636 94.827 16.7923 94.1967 16.4484C93.5663 16.1045 93.0717 15.6181 92.714 14.9866C92.3551 14.3551 92.1763 13.6311 92.1763 12.812C92.1763 11.993 92.3551 11.2715 92.714 10.645C93.073 10.0185 93.5663 9.53458 94.1967 9.1907C94.827 8.84682 95.536 8.67551 96.3249 8.67551C96.8677 8.67551 97.3649 8.7668 97.8152 8.94811C98.2654 9.12943 98.6497 9.40203 98.968 9.76591V5.61438H100.888L100.89 5.61563ZM97.8012 15.0316C98.1703 14.8253 98.462 14.5289 98.6776 14.145C98.8932 13.7611 98.9997 13.3172 98.9997 12.812C98.9997 12.3069 98.8919 11.8629 98.6776 11.479C98.462 11.0952 98.1703 10.8 97.8012 10.5925C97.4321 10.3849 97.0174 10.2824 96.557 10.2824C96.0966 10.2824 95.6806 10.3861 95.3128 10.5925C94.9437 10.8 94.652 11.0952 94.4364 11.479C94.2208 11.8629 94.1142 12.3069 94.1142 12.812C94.1142 13.3172 94.222 13.7611 94.4364 14.145C94.652 14.5289 94.9437 14.824 95.3128 15.0316C95.6819 15.2392 96.0966 15.3417 96.557 15.3417C97.0174 15.3417 97.4334 15.2379 97.8012 15.0316Z" fill="white"/>
<path d="M102.802 5.61572H104.724V16.8574H102.802V5.61572Z" fill="white"/>
<path d="M114.499 8.7681L110.657 17.5101C110.298 18.3892 109.863 19.0069 109.35 19.3658C108.838 19.7246 108.218 19.9035 107.491 19.9035C107.081 19.9035 106.677 19.8372 106.277 19.7059C105.878 19.5746 105.551 19.3933 105.294 19.1607L106.063 17.7664C106.247 17.9377 106.465 18.074 106.716 18.1753C106.967 18.2766 107.221 18.3266 107.477 18.3266C107.816 18.3266 108.095 18.2403 108.314 18.069C108.535 17.8977 108.737 17.6089 108.922 17.205L109.06 16.8873L105.48 8.76685H107.477L110.058 14.7516L112.656 8.76685H114.5L114.499 8.7681Z" fill="white"/>
<path d="M10.872 11.5191L12.3026 17.7289C12.3419 17.9002 12.5804 17.9215 12.6514 17.7602L19.8085 1.41415C19.8744 1.26285 19.7197 1.11029 19.5662 1.17531L2.98693 8.23167C2.82332 8.3017 2.84488 8.53678 3.01864 8.57555L9.31704 9.98607C9.36904 9.99732 9.42358 9.98607 9.4667 9.95606L13.8271 6.81865C13.9971 6.6961 14.2089 6.90493 14.0846 7.07249L10.9024 11.3716C10.8707 11.4141 10.8593 11.4679 10.872 11.5191Z" fill="white"/>
<path d="M19.2541 5.00421L18.8013 6.03959C18.7798 6.08961 18.781 6.14713 18.8051 6.19715C20.4463 9.49712 19.8781 13.6036 17.0993 16.3446C16.0643 17.365 14.8391 18.0828 13.5341 18.4979C9.8585 19.6696 7.03146 15.4543 9.19645 12.592C9.38289 12.3457 10.0259 11.8742 9.49323 11.3466C8.97577 10.8339 8.52552 11.4203 8.22873 11.6379C5.34588 13.7562 1.06662 11.0252 2.21951 7.4226C2.66849 6.01958 3.4802 4.70535 4.65592 3.6262C7.42336 1.08276 11.4604 0.595077 14.7148 2.16566C14.7643 2.18942 14.8226 2.19192 14.8747 2.16941L15.9261 1.72174C16.0707 1.66047 16.0821 1.46165 15.9464 1.38287C11.9233 -0.942991 6.62179 -0.335267 3.26713 3.20854C-0.342469 7.02245 -0.432518 12.8484 3.06673 16.7623C7.00609 21.1689 13.8575 21.3265 18.0061 17.2362C21.3696 13.92 21.8998 8.85188 19.5991 4.98295C19.5192 4.84915 19.3188 4.8604 19.2554 5.00296L19.2541 5.00421Z" fill="white"/>
</svg>
