<svg width="34" height="34" viewBox="0 0 34 34" fill="none" xmlns="http://www.w3.org/2000/svg">
<circle cx="17" cy="17" r="16.5" fill="white" stroke="#C7C7C7"/>
<path d="M12 13.6667H10.3334C9.41288 13.6667 8.66668 14.4129 8.66668 15.3333V22.8333C8.66668 23.7538 9.41288 24.5 10.3334 24.5H12C12.9205 24.5 13.6667 23.7538 13.6667 22.8333V15.3333C13.6667 14.4129 12.9205 13.6667 12 13.6667Z" stroke="#C7C7C7" stroke-linecap="round" stroke-linejoin="round"/>
<path d="M20.2308 24.5H17.1759C16.5179 24.5 15.8745 24.3052 15.3269 23.9402L14.0378 23.0807C13.8059 22.9262 13.6667 22.666 13.6667 22.3873V15.5546C13.6667 15.4096 13.7045 15.2671 13.7765 15.1412L17 9.5H18.1073C19.7712 9.5 20.7637 11.3545 19.8407 12.739L18.6667 14.5H23.1987C24.283 14.5 25.0786 15.519 24.8156 16.5709L23.4646 21.9751C23.0936 23.459 21.7603 24.5 20.2308 24.5Z" stroke="#C7C7C7" stroke-linecap="round" stroke-linejoin="round"/>
</svg>
