<svg width="192" height="33" viewBox="0 0 192 33" fill="none" xmlns="http://www.w3.org/2000/svg">
<mask id="mask0_498_1640" style="mask-type:luminance" maskUnits="userSpaceOnUse" x="0" y="-24" width="101" height="57">
<path d="M100.364 -23.2953H0.524414V32.8647H100.364V-23.2953Z" fill="white"/>
</mask>
<g mask="url(#mask0_498_1640)">
<path d="M50.4445 257.829C121.443 257.829 178.998 200.274 178.998 129.275C178.998 58.277 121.443 0.721436 50.4445 0.721436C-20.5538 0.721436 -78.1094 58.277 -78.1094 129.275C-78.1094 200.274 -20.5538 257.829 50.4445 257.829Z" fill="white"/>
</g>
<circle cx="179" cy="18" r="13" fill="#2C66F5"/>
<path d="M179.247 19.0649L180.454 24.3789C180.487 24.5254 180.688 24.5442 180.748 24.4062L186.787 10.4176C186.843 10.2885 186.712 10.1574 186.582 10.2131L172.594 16.2522C172.456 16.3118 172.474 16.5132 172.621 16.5466L177.935 17.7537C177.979 17.7637 178.025 17.7541 178.061 17.7275L181.741 15.0428C181.884 14.9383 182.062 15.1166 181.958 15.26L179.273 18.9392C179.247 18.9753 179.237 19.0214 179.247 19.0653L179.247 19.0649Z" fill="white"/>
<path d="M186.55 13.4107L186.148 14.3435C186.128 14.3893 186.13 14.4411 186.152 14.4856C187.609 17.4599 187.104 21.1622 184.637 23.6324C183.719 24.5515 182.63 25.1989 181.472 25.5739C178.209 26.6302 175.699 22.8308 177.621 20.2504C177.787 20.0281 178.358 19.603 177.884 19.1277C177.424 18.6657 177.025 19.1937 176.762 19.39C174.202 21.2999 170.404 18.8374 171.427 15.5902C171.826 14.3253 172.546 13.1414 173.589 12.1681C176.046 9.87599 179.63 9.43588 182.52 10.851C182.564 10.8728 182.615 10.8744 182.661 10.8546L183.595 10.4513C183.723 10.3959 183.734 10.2173 183.613 10.1461C180.041 8.04995 175.335 8.59817 172.357 11.7927C169.152 15.2306 169.073 20.4824 172.179 24.0102C175.676 27.9821 181.758 28.1247 185.441 24.4378C188.427 21.4485 188.898 16.8805 186.855 13.3928C186.785 13.2718 186.606 13.2823 186.55 13.4111V13.4107Z" fill="white"/>
<circle cx="169.9" cy="6.30002" r="3.9" fill="#F63B3B"/>
</svg>
