<svg width="20" height="20" viewBox="0 0 20 20" fill="none" xmlns="http://www.w3.org/2000/svg">
<path d="M10.1189 11.4101L11.5144 17.5608C11.5531 17.7303 11.786 17.7521 11.8549 17.5924L18.8367 1.40138C18.9012 1.25188 18.7501 1.10016 18.6003 1.16467L2.42724 8.15454C2.26769 8.2235 2.28902 8.45665 2.4588 8.49535L8.60286 9.89244C8.65353 9.90401 8.70686 9.89288 8.74864 9.86218L13.0025 6.75478C13.1682 6.63376 13.3745 6.84021 13.2536 7.00617L10.1495 11.2646C10.1189 11.3064 10.1078 11.3598 10.1193 11.4105L10.1189 11.4101Z" fill="white"/>
<path d="M18.2967 4.95674L17.8544 5.98186C17.8327 6.03214 17.8344 6.08909 17.8584 6.13803C19.4602 9.4065 18.9056 13.4749 16.194 16.1895C15.1851 17.1995 13.9886 17.9109 12.7157 18.3229C9.13034 19.4837 6.37209 15.3085 8.48456 12.473C8.66678 12.2287 9.2939 11.7615 8.77345 11.2392C8.26811 10.7315 7.82899 11.3117 7.5401 11.5275C4.72719 13.6262 0.552922 10.9201 1.67738 7.3518C2.1156 5.96184 2.90761 4.66086 4.05385 3.59125C6.75387 1.07249 10.6917 0.588853 13.8673 2.14389C13.9162 2.16791 13.9726 2.16969 14.0228 2.14789L15.0486 1.70474C15.19 1.64378 15.2015 1.44757 15.0686 1.36926C11.1437 -0.934145 5.97253 -0.331709 2.69961 3.1788C-0.822202 6.95671 -0.909314 12.7279 2.50361 16.6046C6.3472 20.9694 13.0308 21.126 17.078 17.0744C20.3593 13.7895 20.8767 8.7698 18.6318 4.93716C18.554 4.80413 18.358 4.8157 18.2967 4.95719V4.95674Z" fill="white"/>
</svg>
