<svg width="26" height="29" viewBox="0 0 26 29" fill="none" xmlns="http://www.w3.org/2000/svg">
<circle cx="13" cy="16" r="13" fill="#2C66F5"/>
<path d="M13.2465 17.0649L14.4536 22.3789C14.487 22.5254 14.6885 22.5442 14.748 22.4062L20.7868 8.41764C20.8425 8.28848 20.7118 8.15739 20.5823 8.21313L6.59386 14.2522C6.45585 14.3118 6.47431 14.5132 6.62115 14.5466L11.9353 15.7537C11.9791 15.7637 12.0252 15.7541 12.0614 15.7275L15.7406 13.0428C15.884 12.9383 16.0623 13.1166 15.9578 13.26L13.273 16.9392C13.2465 16.9753 13.2369 17.0214 13.2469 17.0653L13.2465 17.0649Z" fill="white"/>
<path d="M20.5503 11.4105L20.1479 12.3434C20.1281 12.3891 20.1297 12.441 20.1516 12.4855C21.6092 15.4598 21.1044 19.1621 18.6369 21.6323C17.7188 22.5514 16.63 23.1988 15.4717 23.5738C12.209 24.6301 9.69899 20.8306 11.6213 18.2503C11.7872 18.028 12.3578 17.6029 11.8842 17.1275C11.4244 16.6656 11.0248 17.1935 10.7619 17.3899C8.20213 19.2998 4.40355 16.8372 5.4268 13.59C5.82559 12.3252 6.54632 11.1413 7.58939 10.1679C10.0464 7.87587 13.6298 7.43576 16.5196 8.85084C16.5641 8.8727 16.6155 8.87432 16.6612 8.85448L17.5946 8.45122C17.7233 8.39575 17.7338 8.21719 17.6128 8.14593C14.0412 6.04983 9.33539 6.59805 6.35704 9.79261C3.15219 13.2305 3.07291 18.4823 6.17867 22.0101C9.67635 25.982 15.7584 26.1245 19.4414 22.4376C22.4274 19.4484 22.8982 14.8804 20.8553 11.3927C20.7845 11.2717 20.6062 11.2822 20.5503 11.4109V11.4105Z" fill="white"/>
<circle cx="3.9" cy="4.2999" r="3.9" fill="#F63B3B"/>
</svg>
