<svg width="22" height="22" viewBox="0 0 22 22" fill="none" xmlns="http://www.w3.org/2000/svg">
<circle cx="11" cy="11" r="1.83333" fill="white"/>
<path d="M11 11L20.1667 1.83331M16.5 11C16.5 14.0375 14.0376 16.5 11 16.5C7.96247 16.5 5.50004 14.0375 5.50004 11C5.50004 7.96241 7.96247 5.49998 11 5.49998C14.0376 5.49998 16.5 7.96241 16.5 11ZM20.1667 11C20.1667 16.0626 16.0627 20.1666 11 20.1666C5.93743 20.1666 1.83337 16.0626 1.83337 11C1.83337 5.93737 5.93743 1.83331 11 1.83331C16.0627 1.83331 20.1667 5.93737 20.1667 11Z" stroke="white" stroke-linecap="round"/>
</svg>
