<svg width="19" height="18" viewBox="0 0 19 18" fill="none" xmlns="http://www.w3.org/2000/svg">
<path d="M11.7563 12.7749H15.0625C15.8909 12.7749 16.5625 12.034 16.5625 11.1199V6.42783C16.5625 5.80096 16.2415 5.2279 15.7333 4.94756L14.1959 4.09944C13.7794 3.86964 13.32 3.75 12.8543 3.75H11.2544C10.343 3.75 9.48108 4.20707 8.91177 4.99225L8.89294 5.01822M8.89294 5.01822L7.43839 7.02427C7.08207 7.51569 7.11763 8.22413 7.52096 8.66913C7.95812 9.15145 8.66688 9.15145 9.10404 8.66913L10.1654 7.49806L11.8836 10.9735C12.3537 11.9243 11.8829 13.1088 10.9305 13.3715L8.28318 14.1018C7.32907 14.3649 6.32309 14.276 5.41913 13.8486L2.47162 12.4548C1.9201 12.194 1.5625 11.5957 1.5625 10.9336V6.42783C1.5625 5.80096 1.8835 5.2279 2.39168 4.94756L3.92906 4.09944C4.34563 3.86964 4.80497 3.75 5.2707 3.75H6.5316C7.46232 3.75 8.33002 4.22552 8.89294 5.01822Z" stroke="#4E4E4E" stroke-linecap="round" stroke-linejoin="round"/>
</svg>
