<svg width="16" height="16" viewBox="0 0 16 16" fill="none" xmlns="http://www.w3.org/2000/svg">
<path d="M9.50008 2C9.50008 2.82843 8.82851 3.5 8.00008 3.5C7.17165 3.5 6.50008 2.82843 6.50008 2C6.50008 1.17157 7.17165 0.5 8.00008 0.5C8.82851 0.5 9.50008 1.17157 9.50008 2Z" stroke="#4E4E4E"/>
<path d="M9.50008 14C9.50008 14.8284 8.82851 15.5 8.00008 15.5C7.17165 15.5 6.50008 14.8284 6.50008 14C6.50008 13.1716 7.17165 12.5 8.00008 12.5C8.82851 12.5 9.50008 13.1716 9.50008 14Z" stroke="#4E4E4E"/>
<path d="M13.9462 6.29903C13.2288 6.71325 12.3114 6.46744 11.8972 5.75C11.483 5.03256 11.7288 4.11517 12.4462 3.70096C13.1637 3.28674 14.0811 3.53256 14.4953 4.25C14.9095 4.96744 14.6637 5.88482 13.9462 6.29903Z" stroke="#4E4E4E"/>
<path d="M3.55396 12.299C2.83652 12.7132 1.91914 12.4674 1.50492 11.75C1.09071 11.0326 1.33652 10.1152 2.05396 9.70096C2.7714 9.28674 3.68879 9.53256 4.103 10.25C4.51721 10.9674 4.2714 11.8848 3.55396 12.299Z" stroke="#4E4E4E"/>
<path d="M12.4462 12.299C11.7288 11.8848 11.483 10.9674 11.8972 10.25C12.3114 9.53256 13.2288 9.28674 13.9462 9.70096C14.6637 10.1152 14.9095 11.0326 14.4953 11.75C14.0811 12.4674 13.1637 12.7132 12.4462 12.299Z" stroke="#4E4E4E"/>
<path d="M2.05396 6.29906C1.33652 5.88484 1.09071 4.96746 1.50492 4.25002C1.91914 3.53258 2.83652 3.28677 3.55396 3.70098C4.2714 4.11519 4.51721 5.03258 4.103 5.75002C3.68879 6.46746 2.7714 6.71327 2.05396 6.29906Z" stroke="#4E4E4E"/>
</svg>
