<svg width="19" height="19" viewBox="0 0 19 19" fill="none" xmlns="http://www.w3.org/2000/svg">
<path d="M17.8796 13.0655L17.24 12.6739L17.8796 13.0655ZM16.9648 14.5594L17.6044 14.9511L16.9648 14.5594ZM1.12042 5.93444L0.48081 5.54278H0.48081L1.12042 5.93444ZM2.0352 4.44055L2.67481 4.83221H2.67481L2.0352 4.44055ZM4.53441 3.80915L4.89299 3.15043L4.89299 3.15043L4.53441 3.80915ZM1.79008 8.29083L1.4315 8.94956H1.4315L1.79008 8.29083ZM14.4656 15.1908L14.107 15.8496L14.107 15.8496L14.4656 15.1908ZM17.2099 10.7092L16.8513 11.3679L17.2099 10.7092ZM2.03519 14.5595L1.39558 14.9511L1.39558 14.9511L2.03519 14.5595ZM1.12042 13.0656L1.76003 12.6739L1.76003 12.6739L1.12042 13.0656ZM16.9648 4.44056L17.6044 4.0489V4.0489L16.9648 4.44056ZM17.8796 5.93445L17.24 6.32611V6.32611L17.8796 5.93445ZM17.2099 8.29085L17.5685 8.94957V8.94957L17.2099 8.29085ZM14.4656 3.80917L14.8242 4.46789L14.4656 3.80917ZM1.79008 10.7092L2.14866 11.3679H2.14866L1.79008 10.7092ZM4.53441 15.1908L4.17583 14.5321L4.17583 14.5321L4.53441 15.1908ZM14.3683 3.8621L14.0098 3.20338V3.20338L14.3683 3.8621ZM4.63167 3.8621L4.27308 4.52082L4.27309 4.52082L4.63167 3.8621ZM14.3683 15.1379L14.7269 14.4792L14.7269 14.4792L14.3683 15.1379ZM4.63167 15.1379L4.99024 15.7966L4.99025 15.7966L4.63167 15.1379ZM8.58522 1.625H10.4148V0.125H8.58522V1.625ZM10.4148 17.375H8.58522V18.875H10.4148V17.375ZM8.58522 17.375C7.94681 17.375 7.50567 16.8975 7.50567 16.4H6.00567C6.00567 17.8079 7.20277 18.875 8.58522 18.875V17.375ZM11.4943 16.4C11.4943 16.8975 11.0532 17.375 10.4148 17.375V18.875C11.7972 18.875 12.9943 17.8079 12.9943 16.4H11.4943ZM10.4148 1.625C11.0532 1.625 11.4943 2.10249 11.4943 2.6H12.9943C12.9943 1.19213 11.7972 0.125 10.4148 0.125V1.625ZM8.58522 0.125C7.20277 0.125 6.00567 1.19213 6.00567 2.6H7.50567C7.50567 2.10249 7.94681 1.625 8.58522 1.625V0.125ZM17.24 12.6739L16.3252 14.1678L17.6044 14.9511L18.5192 13.4572L17.24 12.6739ZM1.76003 6.3261L2.67481 4.83221L1.39559 4.04889L0.48081 5.54278L1.76003 6.3261ZM2.67481 4.83221C2.96148 4.36405 3.63449 4.1732 4.17583 4.46788L4.89299 3.15043C3.68421 2.49242 2.11935 2.86693 1.39559 4.04889L2.67481 4.83221ZM2.14866 7.63211C1.63072 7.35016 1.49059 6.76611 1.76003 6.3261L0.48081 5.54278C-0.260187 6.75288 0.199322 8.27881 1.4315 8.94956L2.14866 7.63211ZM16.3252 14.1678C16.0385 14.6359 15.3655 14.8268 14.8242 14.5321L14.107 15.8496C15.3158 16.5076 16.8807 16.1331 17.6044 14.9511L16.3252 14.1678ZM18.5192 13.4572C19.2602 12.2471 18.8007 10.7212 17.5685 10.0504L16.8513 11.3679C17.3693 11.6498 17.5094 12.2339 17.24 12.6739L18.5192 13.4572ZM2.67481 14.1678L1.76003 12.6739L0.480808 13.4572L1.39558 14.9511L2.67481 14.1678ZM16.3252 4.83222L17.24 6.32611L18.5192 5.54279L17.6044 4.0489L16.3252 4.83222ZM17.24 6.32611C17.5094 6.76612 17.3693 7.35018 16.8513 7.63212L17.5685 8.94957C18.8007 8.27883 19.2602 6.75289 18.5192 5.54279L17.24 6.32611ZM14.8242 4.46789C15.3655 4.17321 16.0385 4.36406 16.3252 4.83222L17.6044 4.0489C16.8807 2.86695 15.3158 2.49243 14.107 3.15044L14.8242 4.46789ZM1.76003 12.6739C1.49059 12.2339 1.63072 11.6498 2.14866 11.3679L1.4315 10.0504C0.19932 10.7212 -0.260188 12.2471 0.480809 13.4572L1.76003 12.6739ZM1.39558 14.9511C2.11935 16.1331 3.68421 16.5076 4.89299 15.8496L4.17583 14.5321C3.63449 14.8268 2.96148 14.6359 2.67481 14.1678L1.39558 14.9511ZM14.7269 4.52083L14.8242 4.46789L14.107 3.15044L14.0098 3.20338L14.7269 4.52083ZM4.17583 4.46788L4.27308 4.52082L4.99025 3.20337L4.89299 3.15043L4.17583 4.46788ZM14.8242 14.5321L14.7269 14.4792L14.0098 15.7966L14.107 15.8496L14.8242 14.5321ZM4.27309 14.4792L4.17583 14.5321L4.89299 15.8496L4.99024 15.7966L4.27309 14.4792ZM1.4315 8.94956C1.8676 9.18695 1.8676 9.81305 1.4315 10.0504L2.14866 11.3679C3.62854 10.5623 3.62855 8.43769 2.14866 7.63211L1.4315 8.94956ZM4.99025 15.7966C5.44802 15.5474 6.00567 15.8788 6.00567 16.4H7.50567C7.50567 14.7408 5.73038 13.6859 4.27308 14.4792L4.99025 15.7966ZM12.9943 16.4C12.9943 15.8788 13.552 15.5474 14.0098 15.7966L14.7269 14.4792C13.2696 13.6859 11.4943 14.7408 11.4943 16.4H12.9943ZM17.5685 10.0504C17.1324 9.81304 17.1324 9.18696 17.5685 8.94957L16.8513 7.63212C15.3715 8.4377 15.3715 10.5623 16.8513 11.3679L17.5685 10.0504ZM4.27309 4.52082C5.73038 5.31411 7.50567 4.25923 7.50567 2.6H6.00567C6.00567 3.1212 5.44802 3.45256 4.99025 3.20337L4.27309 4.52082ZM14.0098 3.20338C13.552 3.45257 12.9943 3.1212 12.9943 2.6H11.4943C11.4943 4.25923 13.2696 5.31412 14.7269 4.52083L14.0098 3.20338ZM11.625 9.5C11.625 10.6736 10.6736 11.625 9.50001 11.625V13.125C11.502 13.125 13.125 11.502 13.125 9.5H11.625ZM9.50001 11.625C8.3264 11.625 7.37501 10.6736 7.37501 9.5H5.87501C5.87501 11.502 7.49798 13.125 9.50001 13.125V11.625ZM7.37501 9.5C7.37501 8.3264 8.3264 7.375 9.50001 7.375V5.875C7.49798 5.875 5.87501 7.49797 5.87501 9.5H7.37501ZM9.50001 7.375C10.6736 7.375 11.625 8.32639 11.625 9.5H13.125C13.125 7.49797 11.502 5.875 9.50001 5.875V7.375Z" fill="white"/>
</svg>
