<svg width="34" height="34" viewBox="0 0 34 34" fill="none" xmlns="http://www.w3.org/2000/svg">
<circle cx="17" cy="17" r="16.5" transform="matrix(1 0 0 -1 0 34)" fill="white" stroke="#C7C7C7"/>
<path d="M12 20.3333H10.3334C9.41288 20.3333 8.66668 19.5871 8.66668 18.6667V11.1667C8.66668 10.2462 9.41288 9.5 10.3334 9.5H12C12.9205 9.5 13.6667 10.2462 13.6667 11.1667V18.6667C13.6667 19.5871 12.9205 20.3333 12 20.3333Z" stroke="#C7C7C7" stroke-linecap="round" stroke-linejoin="round"/>
<path d="M20.2308 9.5H17.1759C16.5179 9.5 15.8745 9.69479 15.3269 10.0598L14.0378 10.9193C13.8059 11.0738 13.6667 11.334 13.6667 11.6127V18.4454C13.6667 18.5904 13.7045 18.7329 13.7765 18.8588L17 24.5H18.1073C19.7712 24.5 20.7637 22.6455 19.8407 21.261L18.6667 19.5H23.1987C24.283 19.5 25.0786 18.481 24.8156 17.4291L23.4646 12.0249C23.0936 10.541 21.7603 9.5 20.2308 9.5Z" stroke="#C7C7C7" stroke-linecap="round" stroke-linejoin="round"/>
</svg>
