<svg width="21" height="20" viewBox="0 0 21 20" fill="none" xmlns="http://www.w3.org/2000/svg">
<path d="M6.95068 15H13.6174M6.95068 15C6.95068 16.8409 8.44307 18.3333 10.284 18.3333C12.125 18.3333 13.6174 16.8409 13.6174 15M6.95068 15V13.1572C6.95068 12.6124 6.67284 12.1136 6.27696 11.7392C5.15236 10.6759 4.45068 9.16985 4.45068 7.49996C4.45068 4.2783 7.06236 1.66663 10.284 1.66663C13.5057 1.66663 16.1174 4.2783 16.1174 7.49996C16.1174 9.16985 15.4157 10.6759 14.2911 11.7392C13.8952 12.1136 13.6174 12.6124 13.6174 13.1572V15M8.61735 7.49996L10.284 9.16663M10.284 9.16663L11.9507 7.49996M10.284 9.16663V15" stroke="#C7C7C7" stroke-width="1.5" stroke-linecap="round" stroke-linejoin="round"/>
</svg>
