<svg width="13" height="14" viewBox="0 0 13 14" fill="none" xmlns="http://www.w3.org/2000/svg">
<path d="M0.5 13H12.5M7.68961 2.54114C7.68961 2.54114 7.68961 3.63089 8.77936 4.72064C9.86911 5.81039 10.9589 5.81039 10.9589 5.81039M3.37975 10.992L5.66823 10.6651C5.99833 10.618 6.30424 10.465 6.54003 10.2292L12.0486 4.72064C12.6505 4.11879 12.6505 3.14299 12.0486 2.54114L10.9589 1.45139C10.357 0.849537 9.38121 0.849537 8.77936 1.45139L3.27078 6.95997C3.03499 7.19576 2.88203 7.50167 2.83488 7.83177L2.50795 10.1202C2.4353 10.6288 2.8712 11.0647 3.37975 10.992Z" stroke="white" stroke-linecap="round"/>
</svg>
