<svg width="24" height="24" viewBox="0 0 24 24" fill="none" xmlns="http://www.w3.org/2000/svg">
<rect width="24" height="24" rx="12" fill="#3B82F6"/>
<path d="M17.3333 5.33337L18.1952 6.1953C18.4555 6.45565 18.4555 6.87776 18.1952 7.13811L17.3333 8.00004M14.6666 6.66671H17.9999M7.99992 12.6667L9.46659 13.7667C10.1777 14.3 11.1555 14.3 11.8666 13.7667L13.3333 12.6667M7.33325 18.6667H13.9999C15.1045 18.6667 15.9999 17.7713 15.9999 16.6667V11.3334C15.9999 10.2288 15.1045 9.33337 13.9999 9.33337H7.33325C6.22868 9.33337 5.33325 10.2288 5.33325 11.3334V16.6667C5.33325 17.7713 6.22868 18.6667 7.33325 18.6667Z" stroke="#F4F4F4" stroke-linecap="round" stroke-linejoin="round"/>
</svg>
