<svg width="19" height="18" viewBox="0 0 19 18" fill="none" xmlns="http://www.w3.org/2000/svg">
<rect x="1.53125" y="4.5" width="15" height="12" rx="4" stroke="#4E4E4E"/>
<path d="M6.03125 4.5V4.5C6.03125 2.84315 7.3744 1.5 9.03125 1.5V1.5C10.6881 1.5 12.0312 2.84315 12.0312 4.5V4.5" stroke="#4E4E4E" stroke-linecap="round"/>
<path d="M1.53125 8.25C1.53125 8.25 6.10232 11.25 9.03125 11.25C11.9602 11.25 16.5312 8.25 16.5312 8.25" stroke="#4E4E4E" stroke-linecap="round"/>
<path d="M10.5312 11.25C10.5312 12.0784 9.85968 12.75 9.03125 12.75C8.20282 12.75 7.53125 12.0784 7.53125 11.25C7.53125 10.4216 8.20282 9.75 9.03125 9.75C9.85968 9.75 10.5312 10.4216 10.5312 11.25Z" fill="#4E4E4E"/>
</svg>
