<svg width="19" height="18" viewBox="0 0 19 18" fill="none" xmlns="http://www.w3.org/2000/svg">
<mask id="mask0_674_3810" style="mask-type:alpha" maskUnits="userSpaceOnUse" x="0" y="0" width="19" height="18">
<rect x="0.0625" width="18" height="18" fill="#D9D9D9"/>
</mask>
<g mask="url(#mask0_674_3810)">
<path d="M11.6171 8.10574C11.89 8.10574 12.1214 8.01022 12.3113 7.81918C12.5012 7.62816 12.5961 7.39619 12.5961 7.12328C12.5961 6.85038 12.5006 6.61898 12.3096 6.42908C12.1185 6.23918 11.8866 6.14423 11.6137 6.14423C11.3408 6.14423 11.1094 6.23974 10.9195 6.43078C10.7296 6.62181 10.6346 6.85378 10.6346 7.12669C10.6346 7.39959 10.7301 7.63099 10.9212 7.82089C11.1122 8.01079 11.3442 8.10574 11.6171 8.10574ZM6.5113 8.10574C6.7842 8.10574 7.0156 8.01022 7.2055 7.81918C7.39541 7.62816 7.49037 7.39619 7.49037 7.12328C7.49037 6.85038 7.39485 6.61898 7.20381 6.42908C7.01278 6.23918 6.78081 6.14423 6.50791 6.14423C6.23501 6.14423 6.0036 6.23974 5.81369 6.43078C5.62379 6.62181 5.52884 6.85378 5.52884 7.12669C5.52884 7.39959 5.62436 7.63099 5.81539 7.82089C6.00643 8.01079 6.2384 8.10574 6.5113 8.10574ZM9.06248 12.8942C9.84517 12.8942 10.5606 12.6752 11.2086 12.2372C11.8567 11.7993 12.3346 11.2202 12.6423 10.5H5.48269C5.79038 11.2202 6.26826 11.7993 6.91634 12.2372C7.56441 12.6752 8.27979 12.8942 9.06248 12.8942ZM9.06374 16.125C8.07829 16.125 7.15201 15.938 6.28491 15.564C5.4178 15.19 4.66354 14.6824 4.02213 14.0413C3.3807 13.4001 2.87291 12.6462 2.49874 11.7795C2.12458 10.9128 1.9375 9.98669 1.9375 9.00124C1.9375 8.01579 2.1245 7.08951 2.4985 6.22241C2.8725 5.3553 3.38006 4.60104 4.02119 3.95963C4.66233 3.3182 5.41626 2.81041 6.28298 2.43624C7.14969 2.06208 8.07578 1.875 9.06123 1.875C10.0467 1.875 10.973 2.062 11.8401 2.436C12.7072 2.81 13.4614 3.31756 14.1028 3.95869C14.7443 4.59983 15.2521 5.35376 15.6262 6.22048C16.0004 7.08719 16.1875 8.01328 16.1875 8.99873C16.1875 9.98418 16.0005 10.9105 15.6265 11.7776C15.2525 12.6447 14.7449 13.3989 14.1038 14.0403C13.4626 14.6818 12.7087 15.1896 11.842 15.5637C10.9753 15.9379 10.0492 16.125 9.06374 16.125ZM9.06248 15C10.7375 15 12.1562 14.4187 13.3187 13.2562C14.4812 12.0937 15.0625 10.675 15.0625 8.99998C15.0625 7.32498 14.4812 5.90623 13.3187 4.74373C12.1562 3.58123 10.7375 2.99998 9.06248 2.99998C7.38748 2.99998 5.96873 3.58123 4.80623 4.74373C3.64373 5.90623 3.06248 7.32498 3.06248 8.99998C3.06248 10.675 3.64373 12.0937 4.80623 13.2562C5.96873 14.4187 7.38748 15 9.06248 15Z" fill="#4E4E4E"/>
</g>
</svg>
